<?xml version="1.0"?>
<svg id="Layer_1" data-name="Layer 1" xmlns="http://www.w3.org/2000/svg" viewBox="0 0 180 180">
  <defs>
    
  </defs>
  <rect class="cls-2" x="-.2" y="-.03" width="179.99" height="179.99"></rect>
  <path class="cls-1" d="M21.74,120.7c0-2.52,4.2-5.01,13.56-5.28,4.68-.14,8.88-.13,12.36.13,4.54-3.79,9.27-8.77,14.19-14.49-14.79-4.83-22.22-12.33-22.74-19.88-.95-13.67,20.56-27.43,62.4-28.54,2.69-.07,7.18-.04,11.85.45,4.87-1.79,10.17-2.91,16.06-3.06,1.34-.04,2.09.32,2.24.61.19.37-.43.69-1.78.72-3.64.1-7.09,1.02-10.15,2.48,8.31,1.4,16.86,4.25,19.81,10.09,4.45,8.79-8.9,14.73-23.92,16.38,9.27,1.29,19.58,4.64,23.27,12.89.71,1.59.92,3.1,1.08,4.52,12.41-3.83,13.78-8.41,14.45-8.43.22,0,.55.19.76.6.96,1.86-.19,7.84-15.93,12.1-5.03,12.51-32.55,20.33-54.56,20.98-10.12.3-21.59-1.57-31.32-2.82-6,3.27-11.96,5.28-18.08,5.47-8.69.26-13.54-2.35-13.54-4.92ZM42.74,119.07c-2.02-.19-3.77-.27-5.51-.22-5.49.16-7.47.85-7.45,1.49s2.31,1.34,4.82,1.27c2.53-.07,5.24-.92,8.15-2.53ZM108.33,55.22c-2-.1-4.2-.2-6.53-.14-34.88.93-52.02,13.4-50.58,25.58.69,5.82,5.45,11.5,14.54,15.58,12.89-15.48,25.98-32.87,42.58-41.02ZM121.57,105.02c-4.88.49-10.28.88-16.49,1.06-12.17.35-22.91-.38-31.86-2.08-4.67,4.78-9.34,9.11-14.52,12.71,7.89,1.15,13.62,2.5,24.36,2.18,17.45-.51,31.52-6.65,38.5-13.87ZM124.76,100.82c1.83-3.17,2.2-6.33,1.03-9.27-4.14-10.36-23.76-10.01-25.98-10.82-.99-.36-1.32-.73-1.37-.92-.09-.28.1-.38.1-.38,21.5-.69,32.72-8.54,29.82-14.88-1.8-3.94-5.74-6.89-12.76-8.44-12.51,8.28-23.81,27.18-38.68,43.85,7.69,1.79,16.67,2.66,27.5,2.35,7.99-.23,14.7-.76,20.35-1.49Z"></path>
</svg>