<?xml version="1.0"?>
<svg id="Layer_1" data-name="Layer 1" xmlns="http://www.w3.org/2000/svg" viewBox="0 0 512 512">
  <defs>
    
  </defs>
  <rect class="cls-2" x="-1.7" y=".03" width="514.03" height="514.03"></rect>
  <path class="cls-1" d="M60.97,344.8c0-7.21,11.98-14.31,38.73-15.09,13.36-.39,25.36-.39,35.3.38,12.97-10.82,26.47-25.05,40.51-41.38-42.25-13.78-63.46-35.2-64.95-56.76-2.71-39.04,58.72-78.35,178.2-81.52,7.69-.2,20.49-.11,33.84,1.27,13.9-5.12,29.03-8.3,45.87-8.74,3.82-.1,5.98.9,6.4,1.75.53,1.06-1.24,1.96-5.08,2.06-10.39.28-20.25,2.91-29,7.07,23.73,4.01,48.15,12.15,56.58,28.8,12.7,25.11-25.41,42.06-68.31,46.79,26.48,3.67,55.92,13.26,66.46,36.82,2.02,4.53,2.63,8.84,3.09,12.9,35.45-10.95,39.34-24.01,41.27-24.06.63-.02,1.57.55,2.17,1.72,2.74,5.32-.54,22.38-45.5,34.55-14.36,35.72-92.96,58.05-155.82,59.91-28.9.86-61.66-4.48-89.45-8.05-17.14,9.34-34.15,15.09-51.63,15.61-24.81.74-38.67-6.7-38.67-14.05ZM120.92,340.14c-5.76-.55-10.78-.76-15.75-.62-15.68.46-21.34,2.43-21.29,4.24.05,1.82,6.59,3.83,13.77,3.61,7.21-.21,14.97-2.64,23.27-7.24ZM308.24,157.8c-5.72-.29-11.99-.57-18.66-.39-99.6,2.65-148.55,38.27-144.45,73.04,1.96,16.63,15.56,32.83,41.51,44.49,36.82-44.22,74.21-93.86,121.6-117.15ZM346.04,300.04c-13.93,1.4-29.36,2.51-47.08,3.03-34.76,1.01-65.43-1.09-90.97-5.94-13.32,13.65-26.68,26.02-41.47,36.3,22.53,3.28,38.88,7.13,69.56,6.22,49.84-1.47,90.01-18.99,109.96-39.61ZM355.18,288.04c5.24-9.05,6.29-18.07,2.94-26.46-11.82-29.59-67.85-28.59-74.21-30.89-2.81-1.02-3.76-2.08-3.93-2.62-.25-.81.28-1.1.28-1.1,61.4-1.97,93.43-24.39,85.16-42.5-5.14-11.25-16.39-19.69-36.44-24.11-35.74,23.66-68.01,77.62-110.45,125.22,21.97,5.11,47.61,7.6,78.54,6.71,22.83-.66,41.97-2.17,58.11-4.24Z"></path>
</svg>