<?xml version="1.0"?>
<svg id="Layer_1" data-name="Layer 1" xmlns="http://www.w3.org/2000/svg" viewBox="0 0 32 32">
  <defs>
    
  </defs>
  <rect class="cls-2" x=".02" y=".03" width="31.98" height="31.98"></rect>
  <path class="cls-1" d="M3.92,21.47c0-.45.75-.89,2.41-.94.83-.02,1.58-.02,2.2.02.81-.67,1.65-1.56,2.52-2.57-2.63-.86-3.95-2.19-4.04-3.53-.17-2.43,3.65-4.87,11.09-5.07.48-.01,1.27,0,2.11.08.86-.32,1.81-.52,2.85-.54.24,0,.37.06.4.11.03.07-.08.12-.32.13-.65.02-1.26.18-1.8.44,1.48.25,3,.76,3.52,1.79.79,1.56-1.58,2.62-4.25,2.91,1.65.23,3.48.82,4.13,2.29.13.28.16.55.19.8,2.21-.68,2.45-1.49,2.57-1.5.04,0,.1.03.14.11.17.33-.03,1.39-2.83,2.15-.89,2.22-5.78,3.61-9.69,3.73-1.8.05-3.84-.28-5.56-.5-1.07.58-2.12.94-3.21.97-1.54.05-2.41-.42-2.41-.87ZM7.65,21.18c-.36-.03-.67-.05-.98-.04-.98.03-1.33.15-1.32.26s.41.24.86.22.93-.16,1.45-.45ZM19.3,9.84c-.36-.02-.75-.04-1.16-.02-6.2.17-9.24,2.38-8.99,4.54.12,1.03.97,2.04,2.58,2.77,2.29-2.75,4.62-5.84,7.56-7.29ZM21.65,18.69c-.87.09-1.83.16-2.93.19-2.16.06-4.07-.07-5.66-.37-.83.85-1.66,1.62-2.58,2.26,1.4.2,2.42.44,4.33.39,3.1-.09,5.6-1.18,6.84-2.46ZM22.22,17.94c.33-.56.39-1.12.18-1.65-.74-1.84-4.22-1.78-4.62-1.92-.18-.06-.23-.13-.24-.16-.02-.05.02-.07.02-.07,3.82-.12,5.81-1.52,5.3-2.64-.32-.7-1.02-1.22-2.27-1.5-2.22,1.47-4.23,4.83-6.87,7.79,1.37.32,2.96.47,4.89.42,1.42-.04,2.61-.14,3.61-.26Z"></path>
</svg>