<?xml version="1.0"?>
<svg id="Layer_1" data-name="Layer 1" xmlns="http://www.w3.org/2000/svg" viewBox="0 0 500 500">
  <defs>
    
  </defs>
  <g>
    <g>
      <path class="cls-1" d="M30.28,328.03v-.65c3.48-1.08,5.29-1.95,5.29-6.44v-39.52c0-4.7-1.81-5.5-5.29-6.51v-.73h37.21c9.56,0,21.79,2.39,21.79,12.67,0,6.15-4.05,10.06-8.98,11.58,7.17,1.45,14.05,6.15,14.05,14.26,0,11.37-14.55,15.35-25.55,15.35H30.28ZM43.31,277.86v19.48h24.54c5.79,0,13.32-1.59,13.32-9.92s-7.68-9.56-13.76-9.56h-24.1ZM43.31,319.2c0,3.04,0,5.14,3.18,5.14h22.3c10.06,0,16.14-4.85,16.14-11.8,0-6.52-5.28-11.51-16.07-11.51h-25.55v18.17Z"></path>
      <path class="cls-1" d="M110.82,277.86v20.71h23.17c4.42,0,5.94-2.32,6.87-5.72h.8l-1.23,14.77h-.87c-.36-2.68-1.66-5.36-4.85-5.36h-23.89v18.53c0,2.53,1.44,3.69,4.05,3.69h27.59c6.51,0,9.34-4.49,11.29-7.68h.73l-2.82,11.22h-54.15v-.65c3.55-1.08,5.28-1.95,5.28-6.44v-39.52c0-4.7-1.73-5.5-5.28-6.51v-.73h48c.8,0,1.6.07,2.39.07,1.16,0,2.32-.15,3.33-.8h.87l-1.3,11.22h-.65c-.22-2.18-.94-6.81-5.79-6.81h-33.52Z"></path>
      <path class="cls-1" d="M155.52,312.83h.87c3.04,11.37,17.09,12.45,25.7,12.45,11.22,0,22.66-2.17,22.66-10.93,0-17.74-46.69-3.84-46.69-26.14,0-12.81,15.34-15.42,26.28-15.42,9.34,0,15.35,1.89,20.27,4.71.87-.22,1.66-.51,1.73-1.01h.65v11h-.87c-2.82-10.27-15.35-10.86-21.36-10.86-11.08,0-20.56,2.53-20.56,9.63,0,15.85,46.76,2.1,46.76,25.99,0,14.55-17.3,17.08-28.96,17.08s-20.56-2.53-25.7-5.14l-.8-11.37Z"></path>
      <path class="cls-1" d="M219.84,281.41c0-4.7-1.73-5.5-5.28-6.51v-.73h33.45c16.14,0,24.1,6.22,24.1,14.33s-8.11,14.34-24.1,14.34h-20.49v18.1c0,4.49,1.74,5.36,5.29,6.44v.65h-18.24v-.65c3.55-1.08,5.28-1.95,5.28-6.44v-39.52ZM232.72,277.72c-3.11,0-5.21.14-5.21,3.25v18.32h20.56c11.15,0,14.62-5.35,14.62-10.79s-3.91-10.78-14.62-10.78h-15.35Z"></path>
      <path class="cls-1" d="M308.55,272.79c18.53,0,36.27,9.63,36.27,27.59s-18.17,28.96-37.28,28.96-36.12-10.13-36.12-27.44c0-18.17,18.03-29.1,37.14-29.1ZM308.55,325.79c15.35,0,27-9.56,27-23.89s-12.31-25.48-28.17-25.48-26.71,9.63-26.71,23.97c0,15.06,12.09,25.41,27.87,25.41Z"></path>
      <path class="cls-1" d="M366,274.17v.73c-3.4,1.01-5.36,1.95-5.36,6.51v25.05l31.2-26.72c1.45-1.23,2.03-2.17,2.03-2.82,0-1.01-1.37-1.51-2.89-2.02v-.73h14.84v.73c-3.91,1.3-6.66,2.97-9.85,5.65l-19.84,17.08,25.34,24.54c4.2,4.06,6.88,4.63,8.54,5.21v.65h-13.46l-26.21-25.48-9.7,8.32v10.65c0,4.05,2.03,4.85,5.36,5.86v.65h-18.32v-.65c3.18-1.01,5.28-1.88,5.28-5.86v-40.11c0-4.56-1.66-5.43-5.28-6.51v-.73h18.32Z"></path>
      <path class="cls-1" d="M423.81,277.86v20.71h23.17c4.42,0,5.94-2.32,6.87-5.72h.8l-1.23,14.77h-.87c-.36-2.68-1.66-5.36-4.85-5.36h-23.89v18.53c0,2.53,1.44,3.69,4.05,3.69h27.58c6.52,0,9.34-4.49,11.29-7.68h.73l-2.82,11.22h-54.15v-.65c3.55-1.08,5.28-1.95,5.28-6.44v-39.52c0-4.7-1.73-5.5-5.28-6.51v-.73h48c.8,0,1.59.07,2.39.07,1.16,0,2.32-.15,3.33-.8h.87l-1.3,11.22h-.65c-.22-2.18-.94-6.81-5.79-6.81h-33.52Z"></path>
    </g>
    <path class="cls-1" d="M151.18,244.92c0-3.86,6.41-7.66,20.72-8.07,7.15-.21,13.57-.21,18.89.2,6.94-5.79,14.16-13.41,21.68-22.15-22.61-7.37-33.96-18.84-34.76-30.37-1.45-20.89,31.42-41.93,95.36-43.62,4.12-.11,10.97-.06,18.11.68,7.44-2.74,15.54-4.44,24.54-4.68,2.04-.05,3.2.48,3.43.94.28.56-.66,1.05-2.72,1.1-5.56.15-10.84,1.56-15.52,3.78,12.7,2.14,25.77,6.5,30.28,15.41,6.8,13.43-13.6,22.51-36.55,25.04,14.17,1.97,29.93,7.09,35.56,19.7,1.08,2.42,1.41,4.73,1.65,6.91,18.97-5.86,21.05-12.85,22.09-12.88.34,0,.84.29,1.16.92,1.47,2.84-.29,11.98-24.35,18.49-7.69,19.12-49.75,31.07-83.38,32.06-15.47.46-32.99-2.39-47.87-4.31-9.17,5-18.28,8.08-27.63,8.35-13.28.39-20.69-3.59-20.69-7.52ZM183.26,242.43c-3.08-.3-5.77-.41-8.43-.33-8.39.25-11.42,1.3-11.39,2.27s3.52,2.05,7.37,1.93c3.86-.11,8.01-1.41,12.45-3.87ZM283.5,144.85c-3.06-.16-6.41-.3-9.99-.21-53.3,1.42-79.49,20.48-77.3,39.09,1.05,8.9,8.32,17.57,22.21,23.81,19.71-23.66,39.71-50.23,65.07-62.69ZM303.73,220.97c-7.45.75-15.71,1.35-25.19,1.62-18.6.54-35.01-.59-48.68-3.18-7.13,7.3-14.28,13.92-22.19,19.42,12.06,1.75,20.81,3.81,37.23,3.33,26.67-.79,48.17-10.16,58.84-21.19ZM308.62,214.55c2.8-4.84,3.37-9.67,1.57-14.16-6.33-15.84-36.31-15.3-39.71-16.53-1.51-.55-2.01-1.11-2.1-1.4-.13-.43.15-.59.15-.59,32.86-1.05,50-13.05,45.57-22.75-2.75-6.02-8.77-10.53-19.5-12.9-19.12,12.66-36.39,41.54-59.11,67.01,11.76,2.74,25.48,4.07,42.03,3.59,12.22-.35,22.46-1.16,31.09-2.27Z"></path>
  </g>
  <g>
    <path class="cls-1" d="M128.36,365.33v-15.58h6.03c2,0,3.45.42,4.36,1.25.91.83,1.37,1.95,1.37,3.35s-.46,2.51-1.37,3.34c-.91.83-2.37,1.25-4.36,1.25h-3.26v6.39h-2.78ZM131.14,356.78h2.96c1.08,0,1.88-.19,2.42-.56.53-.37.8-1,.8-1.88s-.27-1.49-.8-1.87c-.53-.38-1.34-.57-2.42-.57h-2.96v4.87Z"></path>
    <path class="cls-1" d="M142.44,365.33v-15.58h6.21c1.33,0,2.4.19,3.21.56.81.37,1.41.88,1.79,1.53.38.65.57,1.38.57,2.19,0,1-.27,1.85-.82,2.56s-1.34,1.2-2.4,1.5l3.63,7.13v.12h-2.96l-3.41-6.87h-3.08v6.87h-2.76ZM145.19,356.38h3.16c1.02,0,1.79-.18,2.29-.54.5-.36.75-.92.75-1.7s-.25-1.35-.75-1.71c-.5-.35-1.26-.53-2.29-.53h-3.16v4.47Z"></path>
    <path class="cls-1" d="M162.99,365.61c-1.61,0-2.95-.33-4.02-.99-1.07-.66-1.87-1.59-2.4-2.81-.53-1.21-.79-2.63-.79-4.27s.26-3.08.79-4.28c.53-1.2,1.32-2.14,2.4-2.8s2.41-.99,4.02-.99,2.99.33,4.05.99,1.86,1.59,2.39,2.8c.53,1.2.79,2.63.79,4.28s-.26,3.06-.79,4.27c-.53,1.21-1.32,2.15-2.39,2.81s-2.42.99-4.05.99ZM163.01,363.45c1.48,0,2.57-.52,3.27-1.55.71-1.03,1.06-2.49,1.06-4.36s-.35-3.35-1.06-4.37c-.71-1.03-1.8-1.54-3.27-1.54s-2.59.51-3.29,1.54c-.71,1.02-1.06,2.48-1.06,4.37s.35,3.33,1.06,4.36c.71,1.03,1.8,1.55,3.29,1.55Z"></path>
    <path class="cls-1" d="M172.59,365.33v-15.58h6.03c2,0,3.45.42,4.36,1.25.91.83,1.37,1.95,1.37,3.35s-.46,2.51-1.37,3.34c-.91.83-2.37,1.25-4.36,1.25h-3.26v6.39h-2.78ZM175.37,356.78h2.96c1.08,0,1.88-.19,2.42-.56.53-.37.8-1,.8-1.88s-.27-1.49-.8-1.87c-.53-.38-1.34-.57-2.42-.57h-2.96v4.87Z"></path>
    <path class="cls-1" d="M186.67,365.33v-15.58h10.3v2.26h-7.53v3.91h5.87v2.12h-5.87v5.03h7.65v2.26h-10.42Z"></path>
    <path class="cls-1" d="M199.75,365.33v-15.58h6.21c1.33,0,2.4.19,3.21.56.81.37,1.41.88,1.79,1.53.38.65.57,1.38.57,2.19,0,1-.27,1.85-.82,2.56-.55.71-1.34,1.2-2.4,1.5l3.63,7.13v.12h-2.96l-3.41-6.87h-3.08v6.87h-2.76ZM202.5,356.38h3.16c1.02,0,1.79-.18,2.29-.54.5-.36.75-.92.75-1.7s-.25-1.35-.75-1.71c-.5-.35-1.26-.53-2.29-.53h-3.16v4.47Z"></path>
    <path class="cls-1" d="M217.26,365.33v-13.32h-4.89v-2.26h12.58v2.26h-4.89v13.32h-2.8Z"></path>
    <path class="cls-1" d="M230.74,365.33v-6.59l-4.99-8.87v-.12h3.05l2.28,4.07c.19.31.36.63.52.97.16.34.33.73.5,1.17h.44c.19-.44.36-.83.52-1.17.16-.34.33-.66.5-.97l2.22-4.07h2.77v.12l-5.01,8.91v6.55h-2.8Z"></path>
    <path class="cls-1" d="M251.23,365.63c-2.21,0-3.93-.71-5.15-2.14-1.22-1.42-1.84-3.41-1.84-5.95s.61-4.53,1.83-5.95c1.22-1.42,2.93-2.14,5.14-2.14,1.3,0,2.43.25,3.37.74s1.69,1.18,2.23,2.06c.54.88.86,1.9.97,3.06h-2.8c-.12-1.14-.51-2.05-1.18-2.71-.67-.66-1.53-.99-2.6-.99-1.33,0-2.35.52-3.05,1.55-.7,1.03-1.05,2.49-1.05,4.38s.36,3.4,1.07,4.41,1.72,1.52,3.01,1.52c1.12,0,2-.35,2.66-1.04.65-.69,1.03-1.58,1.14-2.66h2.8c-.11,1.14-.43,2.16-.97,3.04-.54.89-1.28,1.58-2.22,2.07-.94.49-2.06.74-3.37.74Z"></path>
    <path class="cls-1" d="M266.32,365.61c-1.61,0-2.95-.33-4.02-.99-1.07-.66-1.87-1.59-2.4-2.81-.53-1.21-.79-2.63-.79-4.27s.26-3.08.79-4.28,1.32-2.14,2.4-2.8,2.41-.99,4.02-.99,2.99.33,4.05.99c1.06.66,1.86,1.59,2.39,2.8s.79,2.63.79,4.28-.26,3.06-.79,4.27c-.53,1.21-1.32,2.15-2.39,2.81-1.06.66-2.42.99-4.05.99ZM266.34,363.45c1.48,0,2.57-.52,3.27-1.55.71-1.03,1.06-2.49,1.06-4.36s-.35-3.35-1.06-4.37c-.71-1.03-1.8-1.54-3.27-1.54s-2.59.51-3.29,1.54c-.71,1.02-1.06,2.48-1.06,4.37s.35,3.33,1.06,4.36c.71,1.03,1.8,1.55,3.29,1.55Z"></path>
    <path class="cls-1" d="M275.93,365.33v-15.58h4.93l5.51,13.36h.48v-13.36h2.54v15.58h-4.95l-5.49-13.38h-.48v13.38h-2.54Z"></path>
    <path class="cls-1" d="M298.75,365.63c-2.21,0-3.93-.71-5.15-2.14-1.22-1.42-1.84-3.41-1.84-5.95s.61-4.53,1.83-5.95c1.22-1.42,2.93-2.14,5.14-2.14,1.3,0,2.43.25,3.37.74s1.69,1.18,2.23,2.06c.54.88.86,1.9.97,3.06h-2.8c-.12-1.14-.51-2.05-1.18-2.71-.67-.66-1.53-.99-2.6-.99-1.33,0-2.35.52-3.05,1.55-.7,1.03-1.05,2.49-1.05,4.38s.36,3.4,1.07,4.41c.71,1.01,1.72,1.52,3.01,1.52,1.12,0,2-.35,2.66-1.04.65-.69,1.03-1.58,1.14-2.66h2.8c-.11,1.14-.43,2.16-.97,3.04-.54.89-1.28,1.58-2.22,2.07-.94.49-2.06.74-3.37.74Z"></path>
    <path class="cls-1" d="M307.22,365.33v-15.58h2.8v15.58h-2.8Z"></path>
    <path class="cls-1" d="M313.37,365.33v-15.58h10.3v2.26h-7.53v3.91h5.87v2.12h-5.87v5.03h7.65v2.26h-10.42Z"></path>
    <path class="cls-1" d="M326.45,365.33v-15.58h6.21c1.33,0,2.4.19,3.21.56.81.37,1.41.88,1.79,1.53.38.65.57,1.38.57,2.19,0,1-.27,1.85-.82,2.56s-1.34,1.2-2.4,1.5l3.63,7.13v.12h-2.96l-3.41-6.87h-3.08v6.87h-2.76ZM329.2,356.38h3.16c1.02,0,1.79-.18,2.29-.54.5-.36.75-.92.75-1.7s-.25-1.35-.75-1.71c-.5-.35-1.26-.53-2.29-.53h-3.16v4.47Z"></path>
    <path class="cls-1" d="M346.54,365.61c-1.45,0-2.68-.34-3.68-1.03-1.01-.69-1.77-1.64-2.29-2.87-.52-1.22-.78-2.63-.78-4.23s.27-3.02.8-4.22c.53-1.2,1.33-2.14,2.38-2.81,1.05-.66,2.36-1,3.94-1,1.3,0,2.41.23,3.31.68.91.45,1.62,1.09,2.14,1.91s.85,1.79,1,2.91h-2.7c-.16-1.06-.56-1.89-1.21-2.47-.65-.58-1.51-.87-2.6-.87-1.44,0-2.5.52-3.19,1.57-.69,1.05-1.04,2.48-1.04,4.3,0,1.92.37,3.4,1.1,4.44.73,1.05,1.8,1.57,3.22,1.57,1.2,0,2.13-.35,2.79-1.05.66-.7,1.02-1.66,1.09-2.88h-4.75v-2.12h7.33v7.89h-2.1v-1.86h-.48c-.28.56-.75,1.05-1.41,1.49-.66.43-1.61.65-2.85.65Z"></path>
    <path class="cls-1" d="M356.2,365.33v-15.58h10.3v2.26h-7.53v3.91h5.87v2.12h-5.87v5.03h7.65v2.26h-10.42Z"></path>
  </g>
</svg>