<?xml version="1.0"?>
<svg id="Layer_1" data-name="Layer 1" xmlns="http://www.w3.org/2000/svg" viewBox="0 0 2000 2000">
  <defs>
    
  </defs>
  <rect class="cls-1" x="-3.78" y=".41" width="2003.67" height="1999.19"></rect>
  <rect class="cls-1" x="-3.78" y=".41" width="2003.67" height="1999.19"></rect>
  <path class="cls-1" d="M293.64,1310.49c0-26.31,43.73-52.2,141.32-55.05,48.76-1.43,92.52-1.41,128.8,1.38,47.33-39.48,96.58-91.42,147.83-151.01-154.17-50.29-231.56-128.46-237.03-207.12-9.89-142.47,214.27-285.9,650.28-297.46,28.07-.74,74.78-.4,123.48,4.65,50.73-18.69,105.93-30.29,167.37-31.91,13.92-.37,21.82,3.3,23.36,6.38,1.93,3.85-4.51,7.16-18.52,7.53-37.91,1-73.89,10.63-105.82,25.8,86.61,14.62,175.7,44.33,206.45,105.1,46.35,91.61-92.71,153.47-249.26,170.75,96.64,13.41,204.07,48.38,242.5,134.37,7.39,16.53,9.61,32.28,11.26,47.09,129.37-39.95,143.56-87.61,150.61-87.81,2.32-.07,5.73,2,7.94,6.28,10,19.4-1.97,81.66-166.04,126.08-52.4,130.35-339.22,211.84-568.58,218.63-105.47,3.13-224.99-16.33-326.42-29.37-62.54,34.09-124.62,55.08-188.42,56.97-90.54,2.69-141.11-24.46-141.11-51.27ZM512.41,1293.48c-21.01-2.02-39.34-2.78-57.47-2.25-57.21,1.68-77.86,8.87-77.68,15.48.18,6.64,24.03,13.96,50.25,13.19,26.33-.78,54.63-9.63,84.9-26.42ZM1195.94,628.09c-20.88-1.06-43.74-2.07-68.1-1.42-363.44,9.68-542.08,139.65-527.09,266.54,7.16,60.67,56.76,119.8,151.47,162.36,134.38-161.36,270.79-342.52,443.72-427.48ZM1333.9,1147.14c-50.83,5.12-107.14,9.17-171.8,11.04-126.86,3.67-238.74-4-331.97-21.69-48.61,49.81-97.35,94.94-151.33,132.46,82.23,11.95,141.89,26.01,253.84,22.71,181.89-5.36,328.46-69.31,401.26-144.53ZM1367.23,1103.36c19.1-33.01,22.97-65.92,10.73-96.56-43.14-107.98-247.58-104.31-270.78-112.71-10.27-3.72-13.72-7.59-14.33-9.56-.91-2.97,1.01-4,1.01-4,224.05-7.19,340.94-88.99,310.75-155.1-18.74-41.04-59.81-71.83-132.96-87.98-130.4,86.34-248.17,283.23-403.05,456.92,80.17,18.65,173.73,27.73,286.59,24.48,83.31-2.39,153.17-7.93,212.04-15.49Z"></path>
</svg>