<?xml version="1.0"?>
<svg id="Layer_1" data-name="Layer 1" xmlns="http://www.w3.org/2000/svg" viewBox="0 0 500 500">
  <defs>
    
  </defs>
  <path class="cls-1" d="M130.85,328.18c-7.6,4.22-14.71,6.44-21.32,6.64-6.58.19-12.57-1.65-12.62-3.31-.04-1.66,5.14-3.47,19.51-3.89,4.55-.13,9.15.06,14.43.56Z"></path>
  <path class="cls-1" d="M302.5,161.09c-43.43,21.34-77.68,66.83-111.43,107.35-23.78-10.69-36.24-25.54-38.04-40.77-3.76-31.87,41.1-64.5,132.37-66.94,6.11-.16,11.86.09,17.1.36Z"></path>
  <path class="cls-1" d="M337.15,291.44c-18.29,18.88-55.09,34.94-100.77,36.29-28.11.83-43.1-2.7-63.74-5.71,13.55-9.42,25.79-20.75,38-33.26,23.41,4.44,51.51,6.37,83.36,5.45,16.24-.47,30.38-1.49,43.15-2.77Z"></path>
  <path class="cls-1" d="M276.61,225.49c.15.49,1.02,1.47,3.6,2.4,5.82,2.11,57.17,1.19,68,28.3,3.07,7.7,2.1,15.96-2.7,24.25-14.78,1.9-32.32,3.29-53.24,3.89-28.34.82-51.84-1.46-71.97-6.15,38.89-43.61,68.47-93.06,101.21-114.74,18.37,4.06,28.68,11.79,33.39,22.09,7.58,16.61-21.77,37.15-78.03,38.95,0,0-.49.26-.26,1.01Z"></path>
  <path class="cls-1" d="M-5.06-.85v504.85h504.84V-.85H-5.06ZM383.42,283.5c-13.16,32.73-85.19,53.19-142.78,54.9-26.49.78-56.51-4.1-81.97-7.38-15.71,8.56-31.3,13.83-47.32,14.31-22.74.67-35.44-6.14-35.44-12.87s10.99-13.11,35.49-13.83c12.25-.36,23.24-.35,32.35.35,11.88-9.92,24.25-22.96,37.12-37.93-38.72-12.62-58.15-32.26-59.52-52.01-2.49-35.78,53.8-71.79,163.3-74.7,7.04-.19,18.77-.1,31.01,1.17,12.74-4.69,26.6-7.61,42.03-8.01,3.49-.1,5.47.83,5.86,1.6.49.97-1.13,1.8-4.65,1.89-9.52.25-18.56,2.67-26.57,6.48,21.75,3.67,44.12,11.13,51.84,26.39,11.64,23.01-23.28,38.54-62.59,42.88,24.27,3.37,51.24,12.15,60.89,33.74,1.86,4.15,2.42,8.11,2.83,11.83,32.49-10.04,36.05-22,37.82-22.05.58-.02,1.44.5,1.99,1.57,2.52,4.87-.49,20.51-41.69,31.67Z"></path>
</svg>