<?xml version="1.0"?>
<svg id="Layer_1" data-name="Layer 1" xmlns="http://www.w3.org/2000/svg" viewBox="0 0 500 500">
  <defs>
    
  </defs>
  <rect class="cls-2" x="-3.33" y="-5.43" width="511" height="511"></rect>
  <path class="cls-1" d="M75.91,332.45c0-6.61,10.98-13.11,35.49-13.83,12.25-.36,23.23-.35,32.34.35,11.88-9.91,24.25-22.96,37.12-37.92-38.72-12.63-58.15-32.26-59.52-52.01-2.48-35.78,53.81-71.8,163.3-74.7,7.05-.19,18.78-.1,31.01,1.17,12.74-4.69,26.6-7.61,42.03-8.01,3.5-.09,5.48.83,5.87,1.6.48.97-1.13,1.8-4.65,1.89-9.52.25-18.56,2.67-26.57,6.48,21.75,3.67,44.12,11.13,51.84,26.39,11.64,23.01-23.28,38.54-62.59,42.88,24.27,3.37,51.25,12.15,60.9,33.74,1.85,4.15,2.41,8.11,2.83,11.82,32.49-10.03,36.05-22,37.82-22.05.58-.02,1.44.5,1.99,1.58,2.51,4.87-.5,20.51-41.7,31.66-13.16,32.73-85.19,53.2-142.78,54.9-26.49.78-56.5-4.1-81.97-7.38-15.7,8.56-31.3,13.83-47.32,14.31-22.74.68-35.44-6.14-35.44-12.87ZM130.85,328.18c-5.28-.51-9.88-.7-14.43-.56-14.37.42-19.55,2.23-19.51,3.89.05,1.67,6.03,3.51,12.62,3.31,6.61-.2,13.72-2.42,21.32-6.63ZM302.5,161.09c-5.24-.27-10.98-.52-17.1-.36-91.27,2.43-136.13,35.07-132.36,66.93,1.8,15.24,14.25,30.08,38.04,40.77,33.74-40.52,68-86.01,111.43-107.35ZM337.14,291.43c-12.77,1.28-26.9,2.3-43.14,2.77-31.86.92-59.95-1-83.36-5.45-12.21,12.51-24.45,23.84-38,33.26,20.65,3,35.63,6.53,63.75,5.7,45.68-1.35,82.48-17.4,100.76-36.29ZM345.51,280.44c4.8-8.29,5.77-16.55,2.69-24.25-10.83-27.12-62.17-26.2-68-28.3-2.58-.93-3.45-1.91-3.6-2.4-.23-.74.25-1,.25-1,56.26-1.81,85.62-22.35,78.03-38.95-4.71-10.31-15.02-18.04-33.39-22.09-32.75,21.68-62.32,71.12-101.21,114.74,20.13,4.68,43.63,6.96,71.97,6.15,20.92-.6,38.46-1.99,53.25-3.89Z"></path>
</svg>