<?xml version="1.0"?>
<svg id="Layer_1" data-name="Layer 1" xmlns="http://www.w3.org/2000/svg" viewBox="0 0 500 150">
  <defs>
    
  </defs>
  <g>
    <path class="cls-1" d="M113.62,86.65v-.57c3.03-.95,4.61-1.7,4.61-5.62v-34.45c0-4.1-1.58-4.79-4.61-5.68v-.63h32.44c8.33,0,18.99,2.08,18.99,11.04,0,5.36-3.53,8.77-7.83,10.1,6.25,1.26,12.24,5.36,12.24,12.43,0,9.91-12.68,13.38-22.27,13.38h-33.57ZM124.98,42.92v16.98h21.39c5.05,0,11.61-1.39,11.61-8.65s-6.69-8.33-11.99-8.33h-21.01ZM124.98,78.96c0,2.65,0,4.48,2.77,4.48h19.44c8.77,0,14.07-4.23,14.07-10.29,0-5.68-4.6-10.03-14.01-10.03h-22.27v15.84Z"></path>
    <path class="cls-1" d="M183.83,42.92v18.05h20.19c3.85,0,5.17-2.02,5.99-4.99h.69l-1.07,12.88h-.76c-.31-2.34-1.45-4.67-4.23-4.67h-20.82v16.15c0,2.21,1.26,3.22,3.53,3.22h24.05c5.68,0,8.14-3.91,9.84-6.69h.63l-2.46,9.78h-47.2v-.57c3.09-.95,4.6-1.7,4.6-5.62v-34.45c0-4.1-1.51-4.79-4.6-5.68v-.63h41.84c.69,0,1.39.06,2.09.06,1.01,0,2.02-.13,2.9-.69h.76l-1.14,9.78h-.57c-.19-1.9-.82-5.93-5.05-5.93h-29.22Z"></path>
    <path class="cls-1" d="M222.79,73.4h.76c2.65,9.91,14.9,10.85,22.4,10.85,9.78,0,19.75-1.89,19.75-9.53,0-15.46-40.7-3.34-40.7-22.78,0-11.17,13.37-13.44,22.91-13.44,8.14,0,13.38,1.64,17.67,4.11.76-.19,1.45-.44,1.51-.88h.57v9.59h-.76c-2.46-8.96-13.38-9.46-18.62-9.46-9.65,0-17.92,2.21-17.92,8.4,0,13.82,40.76,1.83,40.76,22.65,0,12.68-15.08,14.89-25.24,14.89s-17.92-2.21-22.4-4.48l-.69-9.91Z"></path>
    <path class="cls-1" d="M278.85,46.01c0-4.1-1.51-4.79-4.6-5.68v-.63h29.15c14.07,0,21.01,5.43,21.01,12.49s-7.07,12.5-21.01,12.5h-17.86v15.77c0,3.92,1.52,4.67,4.61,5.62v.57h-15.9v-.57c3.09-.95,4.6-1.7,4.6-5.62v-34.45ZM290.08,42.8c-2.71,0-4.54.12-4.54,2.84v15.96h17.92c9.72,0,12.75-4.67,12.75-9.4s-3.41-9.4-12.75-9.4h-13.38Z"></path>
    <path class="cls-1" d="M356.18,38.5c16.15,0,31.62,8.4,31.62,24.05s-15.84,25.24-32.5,25.24-31.49-8.83-31.49-23.92c0-15.84,15.71-25.37,32.37-25.37ZM356.18,84.69c13.38,0,23.54-8.33,23.54-20.83s-10.73-22.21-24.55-22.21-23.28,8.4-23.28,20.89c0,13.12,10.54,22.15,24.29,22.15Z"></path>
    <path class="cls-1" d="M406.26,39.7v.63c-2.96.88-4.67,1.7-4.67,5.68v21.83l27.2-23.29c1.26-1.07,1.77-1.89,1.77-2.46,0-.88-1.2-1.32-2.52-1.76v-.63h12.94v.63c-3.41,1.14-5.81,2.58-8.59,4.92l-17.29,14.89,22.09,21.39c3.66,3.54,6,4.04,7.45,4.54v.57h-11.74l-22.84-22.21-8.46,7.26v9.28c0,3.53,1.77,4.23,4.67,5.11v.57h-15.96v-.57c2.77-.88,4.6-1.64,4.6-5.11v-34.96c0-3.98-1.45-4.73-4.6-5.68v-.63h15.96Z"></path>
    <path class="cls-1" d="M456.64,42.92v18.05h20.19c3.85,0,5.17-2.02,5.99-4.99h.69l-1.07,12.88h-.76c-.31-2.34-1.45-4.67-4.23-4.67h-20.82v16.15c0,2.21,1.26,3.22,3.53,3.22h24.04c5.68,0,8.14-3.91,9.84-6.69h.63l-2.46,9.78h-47.2v-.57c3.09-.95,4.6-1.7,4.6-5.62v-34.45c0-4.1-1.51-4.79-4.6-5.68v-.63h41.84c.69,0,1.39.06,2.09.06,1.01,0,2.02-.13,2.9-.69h.76l-1.14,9.78h-.57c-.19-1.9-.82-5.93-5.05-5.93h-29.22Z"></path>
  </g>
  <path class="cls-1" d="M19.47,92.94c1.13-.02,2.25.02,3.55.15-1.87,1.03-3.61,1.58-5.23,1.62-1.62.04-3.09-.4-3.09-.8,0-.42,1.28-.86,4.77-.97Z"></path>
  <path class="cls-1" d="M37.78,78.45c-5.84-2.63-8.88-6.26-9.32-10-.93-7.81,10.06-15.82,32.43-16.4,1.51-.04,2.92.02,4.2.08-10.65,5.23-19.05,16.38-27.3,26.32Z"></path>
  <path class="cls-1" d="M63.01,84.75c3.97-.1,7.44-.36,10.56-.67-4.47,4.62-13.5,8.57-24.7,8.88-6.89.21-10.57-.65-15.63-1.39,3.34-2.31,6.32-5.08,9.33-8.15,5.73,1.09,12.62,1.55,20.44,1.32Z"></path>
  <path class="cls-1" d="M76.28,75.44c.76,1.87.53,3.91-.65,5.94-3.63.46-7.92.8-13.04.95-6.95.21-12.71-.36-17.64-1.51,9.54-10.69,16.78-22.81,24.81-28.12,4.5,1.01,7.04,2.9,8.17,5.42,1.87,4.07-5.34,9.12-19.11,9.56,0,0-.13.06-.06.23.04.13.25.36.88.59,1.43.53,14.01.29,16.66,6.95Z"></path>
  <path class="cls-1" d="M6.61,26.95v93.61h93.59V26.95H6.61ZM84.91,82.12c-3.21,8.02-20.88,13.04-34.99,13.46-6.49.19-13.84-1.01-20.1-1.81-3.84,2.1-7.67,3.38-11.59,3.51-5.57.17-8.67-1.51-8.67-3.15s2.69-3.21,8.69-3.4c3-.08,5.69-.08,7.92.08,2.92-2.42,5.94-5.63,9.12-9.28-9.49-3.11-14.26-7.92-14.6-12.75-.61-8.78,13.19-17.6,40.03-18.32,1.72-.04,4.6-.02,7.58.29,3.13-1.16,6.53-1.87,10.31-1.97.86-.02,1.34.21,1.43.4.13.23-.27.44-1.13.46-2.33.06-4.54.65-6.51,1.6,5.34.88,10.82,2.71,12.71,6.47,2.86,5.63-5.71,9.43-15.33,10.5,5.94.82,12.56,2.98,14.91,8.28.46,1.01.59,1.97.69,2.9,7.96-2.46,8.84-5.4,9.28-5.42.13,0,.34.13.48.4.61,1.2-.13,5.02-10.23,7.75Z"></path>
  <g>
    <path class="cls-1" d="M118.38,111.71h-2.46v-17.17h6.12c2.19,0,3.78.45,4.79,1.35,1,.9,1.51,2.11,1.51,3.62s-.5,2.72-1.51,3.62c-1.01.9-2.6,1.35-4.79,1.35h-3.65v7.22ZM118.38,96.52v5.99h3.54c1.38,0,2.37-.24,2.98-.73.61-.49.91-1.24.91-2.27s-.31-1.78-.91-2.27c-.61-.48-1.6-.73-2.98-.73h-3.54Z"></path>
    <path class="cls-1" d="M133.53,111.71h-2.42v-17.17h6.4c1.45,0,2.62.2,3.5.62.88.41,1.52.96,1.91,1.65.4.69.6,1.46.6,2.31,0,1.12-.31,2.06-.94,2.82-.62.76-1.55,1.29-2.76,1.59l4.18,8.06v.13h-2.6l-4.03-7.86h-3.85v7.86ZM133.53,96.52v5.44h3.83c1.32,0,2.26-.24,2.82-.72.56-.48.84-1.15.84-2.01s-.28-1.55-.84-2.01c-.56-.46-1.5-.69-2.82-.69h-3.83Z"></path>
    <path class="cls-1" d="M153.23,112.02c-1.75,0-3.2-.36-4.35-1.09-1.15-.72-2.01-1.76-2.58-3.09-.57-1.33-.85-2.91-.85-4.71s.28-3.39.85-4.72,1.42-2.36,2.58-3.08c1.15-.73,2.6-1.09,4.35-1.09s3.21.36,4.36,1.09c1.15.73,2,1.75,2.56,3.08.57,1.33.85,2.9.85,4.72s-.28,3.38-.85,4.71c-.57,1.33-1.42,2.37-2.56,3.09-1.14.73-2.6,1.09-4.36,1.09ZM153.23,110.04c1.79,0,3.11-.61,3.97-1.82s1.29-2.91,1.29-5.1-.43-3.88-1.29-5.09-2.18-1.82-3.97-1.82-3.11.61-3.97,1.82c-.86,1.21-1.29,2.91-1.29,5.09s.43,3.89,1.29,5.1c.86,1.21,2.18,1.82,3.97,1.82Z"></path>
    <path class="cls-1" d="M166.37,111.71h-2.46v-17.17h6.12c2.19,0,3.78.45,4.79,1.35,1,.9,1.51,2.11,1.51,3.62s-.5,2.72-1.51,3.62c-1.01.9-2.6,1.35-4.79,1.35h-3.65v7.22ZM166.37,96.52v5.99h3.54c1.38,0,2.37-.24,2.98-.73.61-.49.91-1.24.91-2.27s-.31-1.78-.91-2.27c-.61-.48-1.6-.73-2.98-.73h-3.54Z"></path>
    <path class="cls-1" d="M190.24,111.71h-11.14v-17.17h11.01v2.07h-8.54v4.86h6.74v1.98h-6.74v6.18h8.67v2.07Z"></path>
    <path class="cls-1" d="M195.83,111.71h-2.42v-17.17h6.4c1.45,0,2.62.2,3.5.62.88.41,1.52.96,1.91,1.65.4.69.6,1.46.6,2.31,0,1.12-.31,2.06-.94,2.82-.62.76-1.55,1.29-2.76,1.59l4.18,8.06v.13h-2.6l-4.03-7.86h-3.85v7.86ZM195.83,96.52v5.44h3.83c1.32,0,2.26-.24,2.82-.72.56-.48.84-1.15.84-2.01s-.28-1.55-.84-2.01c-.56-.46-1.5-.69-2.82-.69h-3.83Z"></path>
    <path class="cls-1" d="M215,111.71h-2.47v-15.1h-5.7v-2.07h13.87v2.07h-5.7v15.1Z"></path>
    <path class="cls-1" d="M229.64,111.71h-2.47v-7.4l-5.55-9.64v-.13h2.77l2.86,5.02c.19.32.37.66.53,1.01.16.35.34.76.53,1.23h.53c.19-.47.36-.88.52-1.23.15-.35.33-.69.52-1.01l2.82-5.02h2.49v.13l-5.55,9.69v7.35Z"></path>
    <path class="cls-1" d="M249.19,112.04c-2.36,0-4.21-.78-5.54-2.35-1.33-1.56-1.99-3.75-1.99-6.57s.67-5.03,2-6.58c1.33-1.56,3.18-2.33,5.52-2.33,1.37,0,2.55.26,3.56.78,1,.52,1.81,1.25,2.4,2.19.6.94.95,2.04,1.07,3.3h-2.49c-.15-1.31-.62-2.35-1.42-3.13-.8-.78-1.85-1.17-3.16-1.17-1.6,0-2.83.6-3.69,1.82-.86,1.21-1.29,2.92-1.29,5.12s.44,3.93,1.31,5.13c.87,1.2,2.09,1.81,3.64,1.81,1.38,0,2.46-.41,3.25-1.23.78-.82,1.24-1.84,1.35-3.06h2.49c-.12,1.25-.47,2.35-1.07,3.29-.59.95-1.39,1.68-2.39,2.2-1,.52-2.19.78-3.57.78Z"></path>
    <path class="cls-1" d="M265.72,112.02c-1.75,0-3.2-.36-4.35-1.09-1.15-.72-2.01-1.76-2.58-3.09-.57-1.33-.85-2.91-.85-4.71s.28-3.39.85-4.72c.57-1.33,1.42-2.36,2.58-3.08,1.15-.73,2.6-1.09,4.35-1.09s3.21.36,4.36,1.09c1.15.73,2,1.75,2.56,3.08s.85,2.9.85,4.72-.28,3.38-.85,4.71c-.57,1.33-1.42,2.37-2.56,3.09-1.14.73-2.6,1.09-4.36,1.09ZM265.72,110.04c1.79,0,3.11-.61,3.97-1.82.86-1.21,1.29-2.91,1.29-5.1s-.43-3.88-1.29-5.09c-.86-1.21-2.18-1.82-3.97-1.82s-3.11.61-3.97,1.82c-.86,1.21-1.29,2.91-1.29,5.09s.43,3.89,1.29,5.1c.86,1.21,2.18,1.82,3.97,1.82Z"></path>
    <path class="cls-1" d="M278.64,111.71h-2.24v-17.17h4.49l6.82,15.21h.53v-15.21h2.24v17.17h-4.49l-6.82-15.21h-.53v15.21Z"></path>
    <path class="cls-1" d="M300.92,112.04c-2.36,0-4.21-.78-5.54-2.35-1.33-1.56-1.99-3.75-1.99-6.57s.67-5.03,2-6.58c1.33-1.56,3.18-2.33,5.52-2.33,1.37,0,2.55.26,3.56.78,1,.52,1.81,1.25,2.4,2.19.6.94.95,2.04,1.07,3.3h-2.49c-.15-1.31-.62-2.35-1.42-3.13-.8-.78-1.85-1.17-3.16-1.17-1.6,0-2.83.6-3.69,1.82-.86,1.21-1.29,2.92-1.29,5.12s.44,3.93,1.31,5.13c.87,1.2,2.09,1.81,3.64,1.81,1.38,0,2.46-.41,3.25-1.23.78-.82,1.24-1.84,1.35-3.06h2.49c-.12,1.25-.47,2.35-1.07,3.29-.59.95-1.39,1.68-2.39,2.2s-2.19.78-3.57.78Z"></path>
    <path class="cls-1" d="M312.85,111.71h-2.46v-17.17h2.46v17.17Z"></path>
    <path class="cls-1" d="M328.04,111.71h-11.14v-17.17h11.01v2.07h-8.54v4.86h6.74v1.98h-6.74v6.18h8.67v2.07Z"></path>
    <path class="cls-1" d="M333.63,111.71h-2.42v-17.17h6.4c1.45,0,2.62.2,3.5.62.88.41,1.52.96,1.91,1.65.4.69.6,1.46.6,2.31,0,1.12-.31,2.06-.94,2.82-.62.76-1.55,1.29-2.76,1.59l4.18,8.06v.13h-2.6l-4.03-7.86h-3.85v7.86ZM333.63,96.52v5.44h3.83c1.32,0,2.26-.24,2.82-.72.56-.48.84-1.15.84-2.01s-.28-1.55-.84-2.01c-.56-.46-1.5-.69-2.82-.69h-3.83Z"></path>
    <path class="cls-1" d="M352.98,112.04c-1.63,0-2.99-.39-4.1-1.16-1.1-.77-1.93-1.83-2.49-3.19-.56-1.36-.84-2.9-.84-4.63s.28-3.28.84-4.61c.56-1.33,1.41-2.36,2.55-3.11,1.15-.75,2.58-1.12,4.31-1.12,1.38,0,2.56.24,3.54.73.98.48,1.76,1.18,2.33,2.08.57.9.93,1.98,1.08,3.25h-2.42c-.18-1.29-.66-2.29-1.44-3.01-.78-.71-1.85-1.07-3.2-1.07-1.73,0-3.01.62-3.84,1.85-.83,1.23-1.24,2.9-1.24,5,0,2.25.44,3.99,1.33,5.22.89,1.23,2.18,1.85,3.86,1.85,1.44,0,2.56-.42,3.37-1.27.81-.85,1.25-2.03,1.32-3.54h-5.61v-1.98h7.92v8.41h-1.98v-2.11h-.53c-.32.66-.86,1.23-1.6,1.72-.74.48-1.8.73-3.18.73Z"></path>
    <path class="cls-1" d="M374.93,111.71h-11.14v-17.17h11.01v2.07h-8.54v4.86h6.74v1.98h-6.74v6.18h8.67v2.07Z"></path>
  </g>
</svg>