<?xml version="1.0"?>
<svg id="Layer_1" data-name="Layer 1" xmlns="http://www.w3.org/2000/svg" viewBox="0 0 500 200">
  <defs>
    
  </defs>
  <g>
    <path class="cls-1" d="M10.22,116v-.72c3.81-1.19,5.8-2.14,5.8-7.06v-43.34c0-5.16-1.98-6.03-5.8-7.14v-.79h40.8c10.48,0,23.89,2.62,23.89,13.89,0,6.75-4.44,11.03-9.84,12.7,7.86,1.59,15.4,6.75,15.4,15.63,0,12.47-15.95,16.83-28.02,16.83H10.22ZM24.51,60.99v21.35h26.91c6.35,0,14.61-1.75,14.61-10.88s-8.42-10.48-15.09-10.48h-26.43ZM24.51,106.31c0,3.34,0,5.64,3.49,5.64h24.45c11.03,0,17.7-5.32,17.7-12.94,0-7.15-5.79-12.62-17.62-12.62h-28.02v19.93Z"></path>
    <path class="cls-1" d="M98.53,60.99v22.71h25.4c4.84,0,6.51-2.54,7.54-6.28h.87l-1.34,16.2h-.96c-.39-2.94-1.82-5.88-5.32-5.88h-26.19v20.32c0,2.78,1.58,4.05,4.44,4.05h30.25c7.14,0,10.24-4.92,12.38-8.42h.79l-3.1,12.31h-59.37v-.72c3.89-1.19,5.79-2.14,5.79-7.06v-43.34c0-5.16-1.9-6.03-5.79-7.14v-.79h52.62c.87,0,1.75.08,2.62.08,1.27,0,2.54-.16,3.65-.87h.95l-1.43,12.31h-.72c-.24-2.38-1.03-7.47-6.35-7.47h-36.75Z"></path>
    <path class="cls-1" d="M147.53,99.33h.95c3.34,12.46,18.74,13.65,28.18,13.65,12.31,0,24.84-2.38,24.84-11.98,0-19.45-51.2-4.21-51.2-28.66,0-14.04,16.82-16.91,28.81-16.91,10.24,0,16.83,2.07,22.23,5.16.95-.24,1.82-.56,1.9-1.11h.72v12.06h-.95c-3.1-11.27-16.83-11.91-23.42-11.91-12.14,0-22.54,2.78-22.54,10.56,0,17.38,51.27,2.3,51.27,28.5,0,15.95-18.97,18.73-31.75,18.73s-22.54-2.78-28.18-5.64l-.87-12.46Z"></path>
    <path class="cls-1" d="M218.06,64.88c0-5.16-1.9-6.03-5.79-7.14v-.79h36.67c17.7,0,26.43,6.83,26.43,15.71s-8.89,15.72-26.43,15.72h-22.47v19.84c0,4.93,1.91,5.88,5.8,7.06v.72h-20v-.72c3.89-1.19,5.79-2.14,5.79-7.06v-43.34ZM232.18,60.83c-3.41,0-5.71.16-5.71,3.57v20.08h22.54c12.22,0,16.04-5.87,16.04-11.83s-4.29-11.82-16.04-11.82h-16.83Z"></path>
    <path class="cls-1" d="M315.33,55.43c20.32,0,39.77,10.56,39.77,30.25s-19.93,31.75-40.88,31.75-39.61-11.11-39.61-30.09c0-19.92,19.76-31.91,40.72-31.91ZM315.33,113.53c16.83,0,29.61-10.48,29.61-26.2s-13.5-27.94-30.88-27.94-29.29,10.56-29.29,26.28c0,16.51,13.26,27.86,30.56,27.86Z"></path>
    <path class="cls-1" d="M378.32,56.94v.79c-3.73,1.11-5.88,2.14-5.88,7.14v27.46l34.21-29.29c1.59-1.34,2.22-2.38,2.22-3.1,0-1.11-1.51-1.66-3.17-2.22v-.79h16.27v.79c-4.29,1.43-7.3,3.25-10.8,6.19l-21.75,18.73,27.79,26.91c4.6,4.45,7.54,5.08,9.37,5.71v.72h-14.76l-28.74-27.94-10.64,9.13v11.67c0,4.44,2.22,5.32,5.88,6.42v.72h-20.08v-.72c3.49-1.11,5.79-2.06,5.79-6.42v-43.98c0-5-1.82-5.95-5.79-7.14v-.79h20.08Z"></path>
    <path class="cls-1" d="M441.7,60.99v22.71h25.4c4.84,0,6.51-2.54,7.54-6.28h.87l-1.34,16.2h-.96c-.39-2.94-1.82-5.88-5.32-5.88h-26.19v20.32c0,2.78,1.58,4.05,4.44,4.05h30.24c7.15,0,10.24-4.92,12.38-8.42h.79l-3.1,12.31h-59.37v-.72c3.89-1.19,5.79-2.14,5.79-7.06v-43.34c0-5.16-1.9-6.03-5.79-7.14v-.79h52.62c.87,0,1.75.08,2.62.08,1.27,0,2.54-.16,3.65-.87h.95l-1.43,12.31h-.72c-.24-2.38-1.03-7.47-6.35-7.47h-36.75Z"></path>
  </g>
  <g>
    <path class="cls-1" d="M116.39,156.99h-2.51v-17.49h6.23c2.23,0,3.85.46,4.88,1.38,1.02.92,1.53,2.15,1.53,3.69s-.51,2.77-1.53,3.69c-1.02.92-2.65,1.38-4.88,1.38h-3.72v7.35ZM116.39,141.52v6.1h3.61c1.41,0,2.42-.25,3.04-.74.62-.49.93-1.26.93-2.31s-.31-1.81-.93-2.31c-.62-.49-1.63-.74-3.04-.74h-3.61Z"></path>
    <path class="cls-1" d="M131.81,156.99h-2.47v-17.49h6.52c1.48,0,2.67.21,3.57.63.9.42,1.55.98,1.95,1.68.41.7.61,1.49.61,2.35,0,1.14-.32,2.09-.95,2.87-.63.78-1.57,1.32-2.81,1.62l4.26,8.21v.13h-2.64l-4.1-8h-3.92v8ZM131.81,141.52v5.54h3.9c1.34,0,2.3-.24,2.87-.73.57-.49.85-1.17.85-2.05s-.28-1.58-.85-2.05c-.57-.47-1.52-.71-2.87-.71h-3.9Z"></path>
    <path class="cls-1" d="M151.88,157.31c-1.78,0-3.26-.37-4.43-1.11-1.17-.74-2.05-1.79-2.62-3.15s-.86-2.96-.86-4.8.29-3.45.86-4.81,1.45-2.4,2.62-3.14,2.65-1.11,4.43-1.11,3.27.37,4.44,1.11c1.17.74,2.04,1.79,2.61,3.14s.86,2.96.86,4.81-.29,3.44-.86,4.8-1.44,2.41-2.61,3.15c-1.16.74-2.64,1.11-4.44,1.11ZM151.88,155.29c1.82,0,3.17-.62,4.05-1.85s1.31-2.96,1.31-5.19-.44-3.96-1.31-5.19-2.22-1.85-4.05-1.85-3.17.62-4.05,1.85c-.87,1.23-1.31,2.96-1.31,5.19s.44,3.96,1.31,5.19c.88,1.23,2.22,1.85,4.05,1.85Z"></path>
    <path class="cls-1" d="M165.26,156.99h-2.51v-17.49h6.23c2.23,0,3.85.46,4.88,1.38,1.02.92,1.53,2.15,1.53,3.69s-.51,2.77-1.53,3.69c-1.02.92-2.65,1.38-4.88,1.38h-3.72v7.35ZM165.26,141.52v6.1h3.61c1.41,0,2.42-.25,3.04-.74.62-.49.93-1.26.93-2.31s-.31-1.81-.93-2.31c-.62-.49-1.63-.74-3.04-.74h-3.61Z"></path>
    <path class="cls-1" d="M189.57,156.99h-11.34v-17.49h11.21v2.11h-8.7v4.95h6.86v2.02h-6.86v6.3h8.83v2.11Z"></path>
    <path class="cls-1" d="M195.26,156.99h-2.47v-17.49h6.52c1.48,0,2.67.21,3.57.63.9.42,1.55.98,1.95,1.68.41.7.61,1.49.61,2.35,0,1.14-.32,2.09-.95,2.87-.63.78-1.57,1.32-2.81,1.62l4.26,8.21v.13h-2.64l-4.1-8h-3.92v8ZM195.26,141.52v5.54h3.9c1.34,0,2.3-.24,2.87-.73.57-.49.85-1.17.85-2.05s-.28-1.58-.85-2.05c-.57-.47-1.52-.71-2.87-.71h-3.9Z"></path>
    <path class="cls-1" d="M214.79,156.99h-2.51v-15.38h-5.81v-2.11h14.12v2.11h-5.81v15.38Z"></path>
    <path class="cls-1" d="M229.7,156.99h-2.51v-7.53l-5.65-9.82v-.13h2.82l2.91,5.11c.19.33.37.67.54,1.03.16.36.34.78.54,1.25h.54c.19-.48.37-.9.53-1.25.16-.36.33-.7.53-1.03l2.87-5.11h2.53v.13l-5.65,9.87v7.49Z"></path>
    <path class="cls-1" d="M249.61,157.33c-2.41,0-4.28-.8-5.64-2.39-1.35-1.59-2.03-3.82-2.03-6.69s.68-5.12,2.04-6.7c1.36-1.59,3.24-2.38,5.63-2.38,1.39,0,2.6.26,3.62.8,1.02.53,1.84,1.27,2.44,2.23.61.96.97,2.08,1.09,3.36h-2.53c-.15-1.33-.63-2.39-1.45-3.18-.81-.79-1.89-1.19-3.22-1.19-1.63,0-2.88.62-3.76,1.85-.87,1.23-1.31,2.97-1.31,5.21s.44,4,1.34,5.22c.89,1.23,2.13,1.84,3.71,1.84,1.41,0,2.51-.42,3.31-1.25.8-.84,1.26-1.88,1.38-3.12h2.53c-.12,1.27-.48,2.39-1.09,3.35-.6.96-1.42,1.71-2.43,2.24-1.02.53-2.23.8-3.63.8Z"></path>
    <path class="cls-1" d="M266.44,157.31c-1.78,0-3.26-.37-4.43-1.11-1.17-.74-2.05-1.79-2.62-3.15s-.86-2.96-.86-4.8.29-3.45.86-4.81,1.45-2.4,2.62-3.14c1.17-.74,2.65-1.11,4.43-1.11s3.27.37,4.44,1.11c1.17.74,2.04,1.79,2.61,3.14s.86,2.96.86,4.81-.29,3.44-.86,4.8-1.44,2.41-2.61,3.15c-1.16.74-2.64,1.11-4.44,1.11ZM266.44,155.29c1.82,0,3.17-.62,4.05-1.85.87-1.23,1.31-2.96,1.31-5.19s-.44-3.96-1.31-5.19c-.87-1.23-2.22-1.85-4.05-1.85s-3.17.62-4.05,1.85c-.87,1.23-1.31,2.96-1.31,5.19s.44,3.96,1.31,5.19c.88,1.23,2.22,1.85,4.05,1.85Z"></path>
    <path class="cls-1" d="M279.6,156.99h-2.29v-17.49h4.57l6.95,15.49h.54v-15.49h2.29v17.49h-4.57l-6.95-15.49h-.54v15.49Z"></path>
    <path class="cls-1" d="M302.29,157.33c-2.41,0-4.28-.8-5.64-2.39-1.35-1.59-2.03-3.82-2.03-6.69s.68-5.12,2.04-6.7c1.36-1.59,3.24-2.38,5.63-2.38,1.39,0,2.6.26,3.62.8,1.02.53,1.84,1.27,2.44,2.23.61.96.97,2.08,1.09,3.36h-2.53c-.15-1.33-.63-2.39-1.45-3.18-.81-.79-1.89-1.19-3.22-1.19-1.63,0-2.88.62-3.76,1.85-.87,1.23-1.31,2.97-1.31,5.21s.44,4,1.34,5.22c.89,1.23,2.13,1.84,3.71,1.84,1.41,0,2.51-.42,3.31-1.25.8-.84,1.26-1.88,1.38-3.12h2.53c-.12,1.27-.48,2.39-1.09,3.35-.6.96-1.42,1.71-2.43,2.24-1.02.53-2.23.8-3.63.8Z"></path>
    <path class="cls-1" d="M314.44,156.99h-2.51v-17.49h2.51v17.49Z"></path>
    <path class="cls-1" d="M329.91,156.99h-11.34v-17.49h11.21v2.11h-8.7v4.95h6.86v2.02h-6.86v6.3h8.83v2.11Z"></path>
    <path class="cls-1" d="M335.61,156.99h-2.47v-17.49h6.52c1.48,0,2.67.21,3.57.63.9.42,1.55.98,1.95,1.68.41.7.61,1.49.61,2.35,0,1.14-.32,2.09-.95,2.87-.63.78-1.57,1.32-2.81,1.62l4.26,8.21v.13h-2.64l-4.1-8h-3.92v8ZM335.61,141.52v5.54h3.9c1.34,0,2.3-.24,2.87-.73.57-.49.85-1.17.85-2.05s-.28-1.58-.85-2.05c-.57-.47-1.52-.71-2.87-.71h-3.9Z"></path>
    <path class="cls-1" d="M355.31,157.33c-1.66,0-3.05-.39-4.17-1.18-1.12-.78-1.96-1.87-2.53-3.25-.57-1.38-.85-2.96-.85-4.72s.28-3.35.85-4.7c.57-1.35,1.44-2.41,2.6-3.17,1.17-.76,2.63-1.14,4.39-1.14,1.41,0,2.61.25,3.61.74,1,.49,1.79,1.2,2.38,2.12.58.92.95,2.02,1.1,3.31h-2.47c-.18-1.31-.67-2.33-1.47-3.06-.8-.72-1.89-1.09-3.26-1.09-1.76,0-3.07.63-3.91,1.88-.85,1.25-1.27,2.95-1.27,5.09,0,2.29.45,4.06,1.36,5.31.9,1.26,2.22,1.88,3.93,1.88,1.46,0,2.61-.43,3.43-1.3.82-.87,1.27-2.07,1.34-3.61h-5.72v-2.02h8.07v8.56h-2.02v-2.15h-.54c-.33.67-.87,1.25-1.62,1.75-.76.49-1.83.74-3.24.74Z"></path>
    <path class="cls-1" d="M377.67,156.99h-11.34v-17.49h11.21v2.11h-8.7v4.95h6.86v2.02h-6.86v6.3h8.83v2.11Z"></path>
  </g>
</svg>